HIERARCHY
ROOT Hips
{
	OFFSET	0	0	0
	CHANNELS 6  Xposition Yposition Zposition Xrotation Yrotation Zrotation
	JOINT Spine
	{
		OFFSET	0	6.86795	1.37906
		CHANNELS 3  Xrotation Yrotation Zrotation
		JOINT Spine1
		{
			OFFSET	0	11.7606	-2.1001
			CHANNELS 3  Xrotation Yrotation Zrotation
			JOINT Spine2
			{
				OFFSET	0	8.91491	0.955545
				CHANNELS 3  Xrotation Yrotation Zrotation
				JOINT Spine3
				{
					OFFSET	0	10.6685	3.17115
					CHANNELS 3  Xrotation Yrotation Zrotation
					JOINT Spine4
					{
						OFFSET	0	15.7927	-1.61708
						CHANNELS 3  Xrotation Yrotation Zrotation
						JOINT Neck
						{
							OFFSET	0	7.53935	-5.28175
							CHANNELS 3  Xrotation Yrotation Zrotation
							JOINT Head
							{
								OFFSET	0	9.05142	-2.70913
								CHANNELS 3  Xrotation Yrotation Zrotation
								End Site
								{
									OFFSET	0	18.8799	-0.913543
								}
							}
						}
					}
					JOINT LeftShoulder
					{
						OFFSET	-4.53621	19.1949	-9.05142
						CHANNELS 3  Xrotation Yrotation Zrotation
						JOINT LeftArm
						{
							OFFSET	-9.8955	-2.70912	3.47568
							CHANNELS 3  Xrotation Yrotation Zrotation
							JOINT LeftForeArm
							{
								OFFSET	-33.3495	-1.52213	2.38045
								CHANNELS 3  Xrotation Yrotation Zrotation
								JOINT LeftHand
								{
									OFFSET	-27.054	-1.86958	1.93108
									CHANNELS 3  Xrotation Yrotation Zrotation
									End Site
									{
										OFFSET	-9.87335	-0.682306	0.704704
									}
								}
							}
						}
					}
					JOINT RightShoulder
					{
						OFFSET	4.53621	19.1949	-9.05142
						CHANNELS 3  Xrotation Yrotation Zrotation
						JOINT RightArm
						{
							OFFSET	9.8955	-2.70912	3.47568
							CHANNELS 3  Xrotation Yrotation Zrotation
							JOINT RightForeArm
							{
								OFFSET	33.3495	-1.52213	2.38045
								CHANNELS 3  Xrotation Yrotation Zrotation
								JOINT RightHand
								{
									OFFSET	27.054	-1.86958	1.93108
									CHANNELS 3  Xrotation Yrotation Zrotation
									End Site
									{
										OFFSET	9.87335	-0.682306	0.704704
									}
								}
							}
						}
					}
				}
			}
		}
	}
	JOINT LeftUpLeg
	{
		OFFSET	-9.35843	-3.43397	-0.689532
		CHANNELS 3  Xrotation Yrotation Zrotation
		JOINT LeftLeg
		{
			OFFSET	-2.06148	-40.3938	-0.631444
			CHANNELS 3  Xrotation Yrotation Zrotation
			JOINT LeftFoot
			{
				OFFSET	-2.01493	-37.1416	3.19418
				CHANNELS 3  Xrotation Yrotation Zrotation
				JOINT LeftToeBase
				{
					OFFSET	0	-4.59973	-12.2169
					CHANNELS 3  Xrotation Yrotation Zrotation
					End Site
					{
						OFFSET	0	-1.83989	-7.35956
					}
				}
			}
		}
	}
	JOINT RightUpLeg
	{
		OFFSET	9.35843	-3.43397	-0.689532
		CHANNELS 3  Xrotation Yrotation Zrotation
		JOINT RightLeg
		{
			OFFSET	2.06148	-40.3938	-0.631444
			CHANNELS 3  Xrotation Yrotation Zrotation
			JOINT RightFoot
			{
				OFFSET	2.01493	-37.1416	3.19418
				CHANNELS 3  Xrotation Yrotation Zrotation
				JOINT RightToeBase
				{
					OFFSET	0	-4.59973	-12.2169
					CHANNELS 3  Xrotation Yrotation Zrotation
					End Site
					{
						OFFSET	0	-1.83989	-7.35956
					}
				}
			}
		}
	}
}
MOTION
Frames: 19
Frame Time: 0.020408
 0 -8.54439 2.99032 -0 0 -0 -0 0 -0 -0 0 -0 -0 0 -0 -0 0 -0 -0 0 -0 -0 0 -0 -0 0 -0 -0 0 -0 -0 0 -0 -0 0 -0 -0 0 -0 -0 0 -0 -0 0 -0 -0 0 -0 -0 0 -0 -0 0 -0 -0 0 -0 -0 0 -0 -0 0 -0 -0 0 -0 -0 0 -0 -0 0 -0 -0 0 -0
 90.0098 90.2068 -278.255 168.013 8.95522 -166.962 180 -179.997 177.582 172.657 -179.994 175.97 172.649 -179.983 175.97 175.083 -179.997 177.582 177.604 179.966 179.195 1.32189 15.4794 -3.42383 0.0503576 29.8614 1.33216 1.13303 18.8009 1.70354 20.2277 -6.5053 80.6254 141.087 -169.477 169.81 -0 -13.0997 18.1881 0.534873 28.6761 -1.16153 4.91813 16.5918 -58.1729 173.664 172.412 -177.549 -0 -0.157997 -9.9771 170.251 163.533 170.762 2.35069 -2.99558 -0.18297 2.7455 0.00133414 11.5304 166.361 180 -180 167.339 -153.296 169.625 4.99007 10.0832 0.352534 157.827 179.997 175.351 175.475 180 -180
 89.6251 90.2698 -278.241 168.204 8.55882 -166.838 180 -179.992 177.639 172.617 -179.984 176.065 172.57 -179.953 176.065 174.946 -179.992 177.639 177.847 179.97 179.214 2.15615 15.8776 -3.76289 0.307089 30.7512 1.23566 1.06738 18.7729 1.6056 19.754 -8.03521 80.7366 141.062 -168.148 168.712 -0 -14.2476 19.3266 0.329428 28.6724 -0.715366 4.29491 17.3949 -59.1785 174.076 172.658 -177.478 -0 0.88563 -10.3834 170.519 164.138 170.052 2.19178 -3.10968 0.0245738 2.62866 0.0171528 11.5172 166.332 180 -180 166.807 -152.508 168.831 5.23011 9.0132 0.279842 157.781 179.905 175.383 175.474 180 -180
 89.1425 90.3177 -278.421 168.344 8.60591 -166.672 179.999 -179.983 177.726 172.585 -179.966 176.211 172.508 -179.899 176.211 174.842 -179.983 177.726 178.032 179.974 179.243 2.78554 16.0726 -4.19686 0.50519 31.4386 1.10636 1.01236 18.7991 1.52205 19.2206 -9.30033 80.6876 141.031 -167.102 167.897 -0 -15.2832 20.1551 0.297411 28.7372 -0.645821 3.46393 17.9649 -60.8761 174.588 172.814 -177.855 -0 2.10924 -10.8607 170.74 164.629 169.505 2.043 -3.31795 -0.00682225 2.56469 0.0346107 11.4658 166.305 180 -180 166.289 -151.819 168.019 5.45488 7.81506 0.229663 157.734 179.896 175.409 175.473 180 -180
 88.4171 90.333 -278.388 168.401 8.68626 -166.578 180 -179.992 177.823 172.553 -179.983 176.371 172.466 -179.95 176.371 174.781 -179.992 177.823 178.113 179.976 179.275 3.15715 16.5923 -4.48484 0.604688 32.5608 1.08057 1.13448 18.4212 1.71749 18.384 -10.4778 81.1707 141.108 -166.32 167.468 -0 -16.2793 20.7734 0.298135 28.8366 -0.647367 2.85483 18.5843 -62.104 175.1 172.556 -177.79 -0 3.32464 -11.2469 170.58 165.071 168.869 1.98203 -3.5461 -0.102712 2.65417 0.0396704 11.4746 166.279 180 -180 165.795 -151.207 167.185 5.56782 6.66214 0.228696 158.053 179.873 175.438 175.473 180 -180
 88.1428 90.3152 -278.346 168.407 9.11456 -166.408 180 -179.991 177.882 172.532 -179.981 176.47 172.426 -179.944 176.47 174.71 -179.991 177.882 178.239 179.978 179.294 3.65225 17.0608 -4.87746 0.748993 33.6886 1.00832 1.174 18.1508 1.78597 17.6309 -11.5517 80.908 141.191 -165.761 166.952 -0 -17.0859 21.2724 0.251282 28.8189 -0.545631 1.90886 19.1002 -63.1461 175.552 172.419 -177.841 -0 4.35316 -11.7393 170.372 165.335 168.488 1.91701 -3.69995 -0.0628418 2.98625 0.0546007 11.4811 166.254 180 -180 165.142 -150.742 166.509 5.69432 5.63445 0.21112 158.54 179.933 175.452 175.486 180 -180
 87.8675 90.2926 -278.202 168.328 9.40431 -166.221 180 -179.99 177.932 172.515 -179.98 176.553 172.396 -179.939 176.553 174.659 -179.99 177.932 178.327 179.98 179.311 4.032 17.4996 -5.24648 0.856858 34.7616 0.947244 1.15453 17.676 1.77112 16.7366 -12.7302 80.4253 141.268 -165.408 166.622 -0 -17.5588 21.7294 0.262662 28.7817 -0.570352 1.32921 19.7726 -63.72 176.11 172.071 -177.811 -0 5.41351 -12.1634 169.964 165.595 168.09 1.90089 -3.91856 -0.00222872 3.38065 0.0693064 11.4901 166.223 180 -180 164.361 -150.299 166.342 5.66339 4.86427 0.199686 159.129 179.991 175.386 175.498 180 -180
 87.6856 90.2385 -278.22 168.278 9.54848 -166.097 180 -179.996 177.958 172.502 -179.993 176.597 172.369 -179.978 176.597 174.606 -179.996 177.958 178.423 179.981 179.32 4.40815 17.7311 -5.81665 0.973328 35.7186 0.810207 1.24248 16.6703 1.93944 15.9246 -14.1268 79.9285 141.187 -164.744 166.105 -0 -17.9383 22.1803 0.327166 28.7738 -0.710425 0.618834 20.4737 -63.6841 176.689 171.743 -177.877 -0 6.41474 -12.5579 168.357 165.769 168.031 2.67023 -4.29084 -0.297363 4.00219 0.0456023 11.4956 166.192 180 -180 163.661 -150.224 165.572 6.11766 4.50014 0.377339 159.53 -179.974 175.312 175.517 180 -180
 87.4361 90.1745 -278.169 168.201 9.88115 -165.977 180 -179.999 177.992 172.481 -179.997 176.654 172.324 -179.991 176.654 174.518 -179.999 177.992 178.588 179.984 179.331 4.94633 17.768 -6.10616 1.15939 36.0121 0.683658 1.36745 15.8105 2.16549 15.0291 -15.4689 79.7999 141.102 -164.174 165.836 -0 -18.3012 22.6075 0.566742 28.6383 -1.23077 0.0927904 21.0851 -63.4656 177.441 171.509 -177.953 -0 7.48264 -12.6779 167.367 165.957 167.778 4.37008 -4.5759 -0.133502 3.50505 0.0459589 11.4706 166.16 180 -180 162.817 -150.309 165.204 6.64154 4.6801 0.291329 159.892 -179.977 175.31 175.534 180 -180
 87.2265 90.0364 -278.025 167.987 10.1361 -165.846 180 -179.993 178.019 172.433 -179.986 176.698 172.263 -179.959 176.698 174.449 -179.993 178.019 178.661 179.985 179.34 5.23851 17.8579 -6.29241 1.25786 36.3215 0.617476 1.35224 15.1059 2.16597 14.0661 -16.7853 79.623 141.069 -163.812 165.385 -0 -18.6649 23.015 0.770275 28.7018 -1.67281 179.311 158.334 116.877 178.141 171.438 -178.111 -0 8.40171 -12.7903 166.664 166.164 167.696 6.30038 -4.79854 -0.00397352 3.11533 0.0547821 11.4661 166.128 180 -180 162.148 -150.413 164.919 7.18445 5.19995 0.0851601 160.266 -179.961 175.312 175.549 180 -180
 86.8367 89.7629 -277.927 167.822 10.5401 -165.907 180 -179.997 178.029 172.373 -179.994 176.715 172.203 -179.982 176.715 174.406 -179.997 178.029 178.646 179.984 179.343 5.24039 17.7586 -6.36377 1.26271 36.2403 0.587424 1.4059 14.5066 2.27349 13.3644 -18.0049 79.5602 141.045 -163.335 164.996 -0 -19.0293 23.4085 1.20458 28.7008 -2.6164 178.514 157.827 117.057 178.758 171.582 -178.204 -0 9.14449 -12.9765 165.418 166.1 167.767 8.1637 -4.95293 0.0289518 3.46453 0.063465 11.4942 166.1 180 -180 161.526 -150.554 164.58 7.73734 5.86286 0.162549 161.384 -179.951 175.323 175.562 180 -180
 86.744 89.6009 -277.668 167.432 11.1271 -165.852 0.000243336 0.00717894 -1.94134 172.292 179.986 176.764 172.114 179.957 176.764 174.323 179.993 178.059 178.686 179.985 179.353 5.4079 17.6356 -6.19961 1.32694 35.8204 0.58629 1.33361 13.9534 2.17506 12.6824 -19.5291 79.8838 140.906 -162.82 164.588 -0 -19.4434 24.2745 1.47687 28.6773 -3.20828 177.478 157.241 117.1 179.288 171.469 -178.272 -0 9.73784 -13.399 164.023 165.94 168.138 9.85706 -5.08923 0.0433751 3.32831 0.0388786 11.4779 166.067 180 -180 160.446 -150.916 164.645 8.29747 6.85283 0.100985 162.334 -179.946 175.328 175.573 180 -180
 86.6232 89.4935 -277.248 166.898 11.356 -165.92 0.000348562 0.0104239 -1.91519 172.23 179.979 176.808 172.052 179.938 176.808 174.278 179.99 178.085 178.673 179.985 179.362 5.40366 17.5902 -5.891 1.32776 35.3901 0.650146 1.21553 13.6832 1.99052 11.89 -20.9265 80.1277 140.738 -162.294 163.965 -0 -19.8439 25.1538 1.51006 28.5802 -3.28057 177.169 156.491 117.363 179.836 171.02 -178.367 -0 10.251 -13.7381 162.552 165.861 168.631 11.1936 -5.17678 0.128656 3.02012 0.0146234 11.4765 166.032 180 -180 159.339 -151.296 164.793 9.02569 7.87493 -0.077955 162.835 -179.951 175.297 175.583 180 -180
 86.5863 89.4074 -276.788 166.1 11.8018 -165.849 0.000213966 0.00644064 -1.90273 172.114 179.987 176.829 171.954 179.961 176.829 174.257 179.994 178.097 178.505 179.983 179.366 5.05618 18.0472 -5.11369 1.19076 35.3149 0.928852 1.08787 13.1863 1.79471 10.7737 -22.4134 80.4843 140.608 -161.91 163.803 -0 -20.2201 26.169 1.50636 28.6908 -3.27239 176.916 155.751 117.188 0.341891 9.28074 1.45622 -0 10.7083 -14.0542 161.284 165.824 169.021 11.6441 -5.19288 0.129043 3.16098 0.0237051 11.4762 165.998 180 -180 158.121 -151.856 165.013 9.82868 8.88017 -0.189559 162.935 -179.935 175.218 175.592 180 -180
 86.8321 89.3257 -276.185 165.213 12.8522 -165.846 0.000496495 0.0149591 -1.90096 172.017 179.97 176.832 171.877 179.91 176.832 174.247 179.985 178.099 178.343 179.982 179.367 4.72434 18.5132 -4.62211 1.05838 35.597 1.14301 1.07042 13.0189 1.77031 9.22704 -23.5765 80.2371 140.62 -161.492 163.222 -0 -20.5884 26.9286 1.47609 28.752 -3.20649 176.585 155.048 116.37 0.781134 9.46613 1.38921 -0 10.9519 -14.4244 159.947 165.63 170.003 11.7038 -5.02089 0.0269406 3.41974 0.0351919 11.4703 165.963 180 -180 157.237 -152.392 165.62 10.4113 10.0486 -0.0550158 163.111 -179.963 175.14 175.599 180 -180
 87.2288 89.2645 -275.65 164.625 13.3375 -166.051 0.00056136 0.0167982 -1.91399 171.963 179.966 176.81 171.833 179.899 176.81 174.241 179.983 178.086 178.256 179.981 179.362 4.57199 18.8296 -4.52046 0.991334 36.0426 1.22956 1.22035 13.1559 2.01438 7.70618 -24.4275 79.6501 140.638 -160.59 162.389 -0 -20.872 27.118 1.27509 28.6946 -2.76964 176.159 154.32 116.562 1.16929 9.43798 1.29927 -0 10.9212 -14.7812 157.334 165.168 171.592 11.6873 -4.97257 -0.355279 3.89182 0.0432533 11.458 165.931 180 -180 156.91 -152.757 166.413 10.8469 11.5101 0.274606 163.106 -179.995 174.974 175.606 180 -180
 87.7143 89.1606 -275.451 163.948 15.5535 -165.734 7.71677e-05 0.0022987 -1.92271 171.843 179.995 176.795 171.739 179.986 176.795 174.249 179.998 178.077 178.011 179.978 179.359 3.99716 19.2805 -3.89311 0.775268 36.2307 1.503 1.37811 14.2282 2.2382 6.37865 -25.2259 79.4004 140.679 -159.598 161.706 -0 -21.1649 26.9735 1.41349 28.6842 -3.0705 175.93 153.376 116.573 1.57799 9.82942 1.23322 -0 11.0067 -15.1688 156.916 164.766 172.528 11.3774 -4.62042 -0.315985 4.34097 0.0360445 11.4586 165.899 180 -180 157.027 -152.913 167.534 11.341 12.8993 -0.384278 162.901 -179.973 174.605 175.612 180 -180
 87.9161 89.1751 -275.279 163.504 16.4158 -165.908 0.000149222 0.00441652 -1.93513 171.723 179.991 176.775 171.661 179.974 176.775 174.293 179.996 178.065 177.681 179.974 179.355 3.20891 19.9535 -3.25287 0.471113 36.8662 1.84278 1.47879 15.6387 2.34862 5.38892 -25.778 79.0937 140.623 -158.334 160.949 -0 -21.3111 26.7084 1.43343 28.6422 -3.11388 175.823 152.234 117.393 2.00912 10.3094 1.18267 -0 11.1343 -15.5874 156.642 164.053 173.251 11.2701 -4.0592 -0.219541 3.68083 0.00404456 11.4672 165.868 180 -180 157.035 -153.067 168.414 11.5089 14.074 -0.534769 162.978 -179.965 174.163 175.617 180 -180
 88.0611 89.208 -275.122 163.305 17.7763 -166.031 0.000125694 0.00369874 -1.94633 171.639 179.993 176.756 171.601 179.978 176.756 174.311 179.996 178.054 177.481 179.971 179.352 2.6914 20.3029 -2.42241 0.286672 36.7045 2.13522 1.50402 17.0256 2.33402 4.44682 -26.2608 78.3101 140.478 -156.972 160.237 -0 -21.4313 26.3772 1.51461 28.6935 -3.29031 175.732 150.974 118.161 2.47141 10.9458 1.05619 -0 11.3493 -16.0854 156.137 163.272 174.101 11.5166 -3.44061 -0.193432 2.92762 -0.00157295 11.4939 165.839 180 -180 157.769 -153.668 169.243 11.3537 14.601 -0.202027 163.006 179.97 173.648 175.621 180 -180
